<svg width="404" height="282" viewBox="0 0 404 282" fill="none" xmlns="http://www.w3.org/2000/svg">
<path d="M35.786 2.94934H403.426V4.02307H35.786V2.94934Z" fill="#F0F0F0"/>
<path d="M35.786 90.9947H403.426V92.0684H35.786V90.9947Z" fill="#F0F0F0"/>
<path d="M35.786 179.04H403.426V180.114H35.786V179.04Z" fill="#F0F0F0"/>
<path d="M35.786 46.972H403.426V48.0457H35.786V46.972Z" fill="#F0F0F0"/>
<path d="M35.786 135.017H403.426V136.091H35.786V135.017Z" fill="#F0F0F0"/>
<path d="M35.786 223.063H403.426V224.136H35.786V223.063Z" fill="#F0F0F0"/>
<path d="M55.5516 126.428H105.624V258.496H55.5516V126.428Z" fill="#0052B4"/>
<path d="M241.348 182.261H292.739V258.496H241.348V182.261Z" fill="#0052B4"/>
<path d="M117.484 162.934H168.874V258.496H117.484V162.934Z" fill="#0052B4"/>
<path d="M304.598 23.3501H354.671V258.496H304.598V23.3501Z" fill="#0052B4"/>
<path d="M180.734 67.3727H229.489V258.496H180.734V67.3727Z" fill="#0052B4"/>
<path d="M276.926 168.84C276.926 172.694 273.092 175.819 268.361 175.819C263.631 175.819 259.796 172.694 259.796 168.84C259.796 164.985 263.631 161.86 268.361 161.86C273.092 161.86 276.926 164.985 276.926 168.84Z" fill="#018183"/>
<path d="M225.536 109.248C225.536 106.876 227.381 104.953 229.657 104.953H300.477C302.753 104.953 304.598 106.876 304.598 109.248V139.312C304.598 141.684 302.753 143.607 300.477 143.607H229.657C227.381 143.607 225.536 141.684 225.536 139.312V109.248Z" fill="#2E3A59" fill-opacity="0.4"/>
<path d="M256.296 124.28H254.81L253.781 121.234H249.246L248.218 124.28H246.802L250.619 113.351H252.479L256.296 124.28ZM253.352 119.986L251.514 114.621L249.669 119.986H253.352Z" fill="white"/>
<path d="M264.584 116.081L261.401 124.28H260.07L256.908 116.081H258.345L260.782 122.607L263.197 116.081H264.584Z" fill="white"/>
<path d="M272.697 123.348C272.697 124.738 272.395 125.758 271.789 126.409C271.183 127.059 270.251 127.385 268.993 127.385C268.575 127.385 268.167 127.353 267.768 127.289C267.373 127.231 266.984 127.145 266.599 127.033V125.623H266.669C266.885 125.711 267.228 125.819 267.697 125.946C268.167 126.078 268.636 126.144 269.106 126.144C269.556 126.144 269.93 126.088 270.225 125.976C270.521 125.863 270.751 125.706 270.916 125.506C271.08 125.315 271.197 125.085 271.268 124.816C271.338 124.547 271.373 124.246 271.373 123.913V123.164C270.974 123.497 270.592 123.747 270.225 123.913C269.864 124.075 269.401 124.155 268.838 124.155C267.899 124.155 267.153 123.803 266.599 123.098C266.049 122.389 265.775 121.391 265.775 120.104C265.775 119.399 265.868 118.792 266.056 118.283C266.249 117.77 266.509 117.327 266.838 116.955C267.143 116.607 267.514 116.338 267.951 116.147C268.387 115.952 268.822 115.854 269.254 115.854C269.709 115.854 270.089 115.903 270.394 116.001C270.704 116.094 271.031 116.238 271.373 116.434L271.458 116.081H272.697V123.348ZM271.373 122.027V117.557C271.021 117.39 270.693 117.273 270.387 117.204C270.087 117.131 269.786 117.094 269.486 117.094C268.758 117.094 268.185 117.349 267.768 117.858C267.35 118.367 267.141 119.105 267.141 120.074C267.141 120.994 267.296 121.692 267.606 122.166C267.915 122.641 268.43 122.878 269.148 122.878C269.533 122.878 269.918 122.802 270.303 122.651C270.693 122.494 271.049 122.286 271.373 122.027Z" fill="white"/>
<path d="M252.388 131.702C252.388 132.117 252.318 132.503 252.177 132.859C252.04 133.212 251.847 133.518 251.597 133.778C251.288 134.101 250.921 134.344 250.499 134.508C250.076 134.667 249.543 134.747 248.899 134.747H247.704V138.238H246.509V128.871H248.947C249.487 128.871 249.943 128.919 250.318 129.015C250.692 129.108 251.024 129.254 251.314 129.456C251.656 129.695 251.919 129.993 252.104 130.349C252.294 130.706 252.388 131.157 252.388 131.702ZM251.145 131.733C251.145 131.41 251.09 131.129 250.982 130.89C250.873 130.651 250.708 130.456 250.487 130.305C250.294 130.175 250.072 130.083 249.823 130.028C249.577 129.97 249.265 129.94 248.887 129.94H247.704V133.684H248.712C249.195 133.684 249.587 133.64 249.889 133.551C250.191 133.459 250.436 133.314 250.626 133.117C250.815 132.916 250.948 132.704 251.024 132.482C251.104 132.26 251.145 132.01 251.145 131.733Z" fill="white"/>
<path d="M259.626 134.728C259.626 135.873 259.344 136.777 258.781 137.439C258.217 138.102 257.463 138.434 256.517 138.434C255.563 138.434 254.805 138.102 254.241 137.439C253.682 136.777 253.402 135.873 253.402 134.728C253.402 133.583 253.682 132.679 254.241 132.016C254.805 131.349 255.563 131.016 256.517 131.016C257.463 131.016 258.217 131.349 258.781 132.016C259.344 132.679 259.626 133.583 259.626 134.728ZM258.455 134.728C258.455 133.818 258.284 133.143 257.942 132.702C257.6 132.258 257.125 132.035 256.517 132.035C255.901 132.035 255.422 132.258 255.08 132.702C254.742 133.143 254.573 133.818 254.573 134.728C254.573 135.609 254.744 136.278 255.086 136.735C255.429 137.188 255.905 137.414 256.517 137.414C257.121 137.414 257.594 137.19 257.936 136.741C258.282 136.288 258.455 135.617 258.455 134.728Z" fill="white"/>
<path d="M262.608 130.035H261.328V128.808H262.608V130.035ZM262.535 138.238H261.4V131.211H262.535V138.238Z" fill="white"/>
<path d="M270.419 138.238H269.284V134.237C269.284 133.914 269.266 133.612 269.23 133.331C269.193 133.046 269.127 132.824 269.03 132.664C268.93 132.488 268.785 132.358 268.596 132.274C268.407 132.186 268.161 132.142 267.859 132.142C267.55 132.142 267.226 132.222 266.888 132.381C266.55 132.541 266.226 132.744 265.916 132.992V138.238H264.781V131.211H265.916V131.991C266.27 131.685 266.636 131.446 267.014 131.274C267.393 131.102 267.781 131.016 268.179 131.016C268.908 131.016 269.463 131.245 269.845 131.702C270.228 132.159 270.419 132.817 270.419 133.677V138.238Z" fill="white"/>
<path d="M276.105 138.176C275.892 138.234 275.658 138.283 275.405 138.32C275.155 138.358 274.932 138.377 274.735 138.377C274.047 138.377 273.524 138.184 273.165 137.798C272.807 137.412 272.628 136.794 272.628 135.942V132.205H271.862V131.211H272.628V129.192H273.763V131.211H276.105V132.205H273.763V135.407C273.763 135.776 273.771 136.066 273.787 136.276C273.803 136.481 273.86 136.674 273.956 136.854C274.045 137.022 274.165 137.146 274.318 137.226C274.475 137.301 274.713 137.339 275.031 137.339C275.216 137.339 275.409 137.312 275.61 137.257C275.811 137.198 275.956 137.15 276.045 137.112H276.105V138.176Z" fill="white"/>
<path d="M5.00077 5.21842C5.00077 5.85315 4.79956 6.37184 4.39714 6.77448C3.99739 7.17433 3.50644 7.37426 2.92426 7.37426C2.62915 7.37426 2.36087 7.32672 2.11941 7.23166C1.87796 7.13659 1.66467 6.99538 1.47956 6.80804C1.24883 6.57596 1.07042 6.26838 0.944332 5.88531C0.820921 5.50223 0.759216 5.04087 0.759216 4.50121C0.759216 3.94757 0.815556 3.45685 0.928235 3.02903C1.0436 2.60122 1.22603 2.22095 1.47553 1.8882C1.71162 1.57224 2.01612 1.32618 2.38904 1.15002C2.76195 0.971065 3.19657 0.881588 3.69289 0.881588C3.85118 0.881588 3.98398 0.888578 4.09129 0.902559C4.19861 0.91654 4.30726 0.941705 4.41726 0.978055V1.77915H4.37702C4.3019 1.73721 4.18788 1.69807 4.03495 1.66172C3.88472 1.62257 3.73045 1.603 3.57217 1.603C2.99536 1.603 2.53525 1.79174 2.19185 2.16922C1.84845 2.5439 1.64858 3.0514 1.59224 3.69172C1.81759 3.54912 2.03893 3.44147 2.25624 3.36877C2.47623 3.29327 2.72976 3.25552 3.01682 3.25552C3.27169 3.25552 3.49571 3.28069 3.68887 3.33102C3.88472 3.37855 4.08459 3.47642 4.28848 3.62462C4.52457 3.79518 4.70164 4.01049 4.81968 4.27053C4.94041 4.53057 5.00077 4.84654 5.00077 5.21842ZM4.18385 5.25198C4.18385 4.99194 4.14629 4.77663 4.07117 4.60607C3.99874 4.4355 3.87801 4.2873 3.70899 4.16148C3.58558 4.072 3.44876 4.01328 3.29852 3.98532C3.14828 3.95736 2.99133 3.94338 2.82768 3.94338C2.59964 3.94338 2.3877 3.97134 2.19185 4.02726C1.996 4.08319 1.79479 4.16987 1.58821 4.2873C1.58285 4.34882 1.57882 4.40894 1.57614 4.46766C1.57346 4.52358 1.57211 4.59488 1.57211 4.68156C1.57211 5.12335 1.61504 5.47287 1.70089 5.73012C1.78942 5.98457 1.91015 6.18589 2.06307 6.33409C2.18648 6.45712 2.31928 6.548 2.46147 6.60671C2.60635 6.66264 2.76329 6.6906 2.93231 6.6906C3.32132 6.6906 3.62716 6.56757 3.84984 6.32151C4.07251 6.07265 4.18385 5.71614 4.18385 5.25198Z" fill="black"/>
<path d="M10.1438 4.11954C10.1438 5.24079 9.97475 6.06426 9.63671 6.58994C9.30135 7.11282 8.77954 7.37426 8.07128 7.37426C7.35228 7.37426 6.82644 7.10862 6.49377 6.57736C6.16378 6.04609 5.99879 5.22961 5.99879 4.12792C5.99879 3.01785 6.16646 2.19858 6.50182 1.6701C6.83717 1.13883 7.36033 0.873199 8.07128 0.873199C8.79027 0.873199 9.31477 1.14303 9.64476 1.68269C9.97743 2.21955 10.1438 3.03183 10.1438 4.11954ZM9.08539 6.02372C9.17929 5.79723 9.24233 5.53159 9.27453 5.22681C9.3094 4.91924 9.32684 4.55014 9.32684 4.11954C9.32684 3.69452 9.3094 3.32543 9.27453 3.01226C9.24233 2.69909 9.17794 2.43345 9.08136 2.21535C8.98746 2.00005 8.85869 1.83787 8.69503 1.72882C8.53406 1.61977 8.32614 1.56525 8.07128 1.56525C7.81909 1.56525 7.60983 1.61977 7.44349 1.72882C7.27984 1.83787 7.14972 2.00285 7.05314 2.22374C6.96192 2.43066 6.89888 2.70049 6.864 3.03323C6.83181 3.36597 6.81571 3.73087 6.81571 4.12792C6.81571 4.56412 6.83047 4.92902 6.85998 5.22262C6.88949 5.51621 6.95253 5.77905 7.04912 6.01113C7.13765 6.22923 7.2624 6.39561 7.42337 6.51025C7.58702 6.62489 7.80299 6.68221 8.07128 6.68221C8.32346 6.68221 8.53272 6.62769 8.69906 6.51864C8.86539 6.40959 8.99417 6.24461 9.08539 6.02372Z" fill="black"/>
<path d="M14.2445 2.73124C14.2445 3.35758 14.117 3.82314 13.8622 4.12792C13.61 4.4327 13.2451 4.58509 12.7676 4.58509C12.2793 4.58509 11.9104 4.4327 11.6609 4.12792C11.4114 3.82314 11.2867 3.35898 11.2867 2.73544C11.2867 2.1091 11.4141 1.64354 11.669 1.33876C11.9238 1.03398 12.29 0.881588 12.7676 0.881588C13.2532 0.881588 13.6207 1.03538 13.8702 1.34295C14.1197 1.65053 14.2445 2.11329 14.2445 2.73124ZM17.0252 0.999026L13.8863 7.24424H13.2223L16.3612 0.999026H17.0252ZM18.9569 5.51202C18.9569 6.13836 18.8294 6.60392 18.5746 6.9087C18.3197 7.21348 17.9535 7.36587 17.4759 7.36587C16.9904 7.36587 16.6228 7.21208 16.3733 6.90451C16.1238 6.59693 15.999 6.13416 15.999 5.51621C15.999 4.88988 16.1251 4.42432 16.3773 4.11954C16.6322 3.81475 16.9984 3.66236 17.4759 3.66236C17.9642 3.66236 18.3331 3.81475 18.5826 4.11954C18.8321 4.42432 18.9569 4.88848 18.9569 5.51202ZM13.5282 2.73124C13.5282 2.25031 13.4678 1.91477 13.3471 1.72463C13.229 1.53449 13.0359 1.43942 12.7676 1.43942C12.4939 1.43942 12.2981 1.53449 12.18 1.72463C12.062 1.91477 12.003 2.2517 12.003 2.73544C12.003 3.21917 12.062 3.55611 12.18 3.74625C12.2981 3.93359 12.4939 4.02726 12.7676 4.02726C13.0359 4.02726 13.229 3.93359 13.3471 3.74625C13.4678 3.55611 13.5282 3.21778 13.5282 2.73124ZM18.2406 5.51202C18.2406 5.03108 18.1802 4.69554 18.0595 4.5054C17.9414 4.31527 17.7483 4.2202 17.48 4.2202C17.2063 4.2202 17.0105 4.31527 16.8924 4.5054C16.7744 4.69554 16.7154 5.03248 16.7154 5.51621C16.7154 5.99995 16.7744 6.33689 16.8924 6.52702C17.0105 6.71437 17.2063 6.80804 17.48 6.80804C17.7483 6.80804 17.9414 6.71437 18.0595 6.52702C18.1802 6.33689 18.2406 5.99855 18.2406 5.51202Z" fill="black"/>
<path d="M4.86395 49.283C4.86395 49.5738 4.81298 49.852 4.71103 50.1177C4.60908 50.3833 4.46957 50.607 4.29251 50.7888C4.09934 50.9845 3.86862 51.1355 3.60034 51.2417C3.33474 51.3452 3.02621 51.3969 2.67476 51.3969C2.34745 51.3969 2.03222 51.3606 1.72906 51.2879C1.4259 51.218 1.16969 51.1327 0.960429 51.032V50.147H1.01677C1.23676 50.2924 1.49431 50.4169 1.78942 50.5203C2.08454 50.621 2.37428 50.6713 2.65866 50.6713C2.84914 50.6713 3.03292 50.6434 3.20998 50.5874C3.38973 50.5315 3.54936 50.4336 3.68887 50.2938C3.80691 50.1736 3.89545 50.0296 3.95447 49.8618C4.01617 49.6941 4.04703 49.4997 4.04703 49.2788C4.04703 49.0635 4.01081 48.8818 3.93837 48.7336C3.86862 48.5854 3.7707 48.4665 3.6446 48.3771C3.5051 48.2708 3.33474 48.1967 3.13352 48.1548C2.93499 48.11 2.71232 48.0877 2.4655 48.0877C2.22941 48.0877 2.00137 48.1044 1.78138 48.138C1.56407 48.1716 1.37627 48.2051 1.21798 48.2387V45.0217H4.82371V45.7557H1.99466V47.4166C2.11002 47.4054 2.22807 47.397 2.34879 47.3914C2.46952 47.3858 2.57415 47.383 2.66269 47.383C2.98731 47.383 3.27169 47.4124 3.51583 47.4711C3.75996 47.527 3.98398 47.6277 4.18788 47.7731C4.4025 47.9269 4.56884 48.1254 4.68688 48.3687C4.80493 48.6119 4.86395 48.9167 4.86395 49.283Z" fill="black"/>
<path d="M10.1438 48.1422C10.1438 49.2635 9.97475 50.0869 9.63671 50.6126C9.30135 51.1355 8.77954 51.3969 8.07128 51.3969C7.35228 51.3969 6.82644 51.1313 6.49377 50.6C6.16378 50.0687 5.99879 49.2523 5.99879 48.1506C5.99879 47.0405 6.16646 46.2212 6.50182 45.6928C6.83717 45.1615 7.36033 44.8959 8.07128 44.8959C8.79027 44.8959 9.31477 45.1657 9.64476 45.7053C9.97743 46.2422 10.1438 47.0545 10.1438 48.1422ZM9.08539 50.0464C9.17929 49.8199 9.24233 49.5543 9.27453 49.2495C9.3094 48.9419 9.32684 48.5728 9.32684 48.1422C9.32684 47.7172 9.3094 47.3481 9.27453 47.0349C9.24233 46.7217 9.17794 46.4561 9.08136 46.238C8.98746 46.0227 8.85869 45.8605 8.69503 45.7515C8.53406 45.6424 8.32614 45.5879 8.07128 45.5879C7.81909 45.5879 7.60983 45.6424 7.44349 45.7515C7.27984 45.8605 7.14972 46.0255 7.05314 46.2464C6.96192 46.4533 6.89888 46.7231 6.864 47.0559C6.83181 47.3886 6.81571 47.7535 6.81571 48.1506C6.81571 48.5868 6.83047 48.9517 6.85998 49.2453C6.88949 49.5389 6.95253 49.8017 7.04912 50.0338C7.13765 50.2519 7.2624 50.4183 7.42337 50.5329C7.58702 50.6476 7.80299 50.7049 8.07128 50.7049C8.32346 50.7049 8.53272 50.6503 8.69906 50.5413C8.86539 50.4322 8.99417 50.2673 9.08539 50.0464Z" fill="black"/>
<path d="M14.2445 46.7539C14.2445 47.3802 14.117 47.8458 13.8622 48.1506C13.61 48.4554 13.2451 48.6078 12.7676 48.6078C12.2793 48.6078 11.9104 48.4554 11.6609 48.1506C11.4114 47.8458 11.2867 47.3816 11.2867 46.7581C11.2867 46.1318 11.4141 45.6662 11.669 45.3614C11.9238 45.0566 12.29 44.9042 12.7676 44.9042C13.2532 44.9042 13.6207 45.058 13.8702 45.3656C14.1197 45.6732 14.2445 46.136 14.2445 46.7539ZM17.0252 45.0217L13.8863 51.2669H13.2223L16.3612 45.0217H17.0252ZM18.9569 49.5347C18.9569 50.161 18.8294 50.6266 18.5746 50.9314C18.3197 51.2361 17.9535 51.3885 17.4759 51.3885C16.9904 51.3885 16.6228 51.2347 16.3733 50.9272C16.1238 50.6196 15.999 50.1568 15.999 49.5389C15.999 48.9125 16.1251 48.447 16.3773 48.1422C16.6322 47.8374 16.9984 47.685 17.4759 47.685C17.9642 47.685 18.3331 47.8374 18.5826 48.1422C18.8321 48.447 18.9569 48.9111 18.9569 49.5347ZM13.5282 46.7539C13.5282 46.273 13.4678 45.9374 13.3471 45.7473C13.229 45.5572 13.0359 45.4621 12.7676 45.4621C12.4939 45.4621 12.2981 45.5572 12.18 45.7473C12.062 45.9374 12.003 46.2744 12.003 46.7581C12.003 47.2418 12.062 47.5788 12.18 47.7689C12.2981 47.9563 12.4939 48.0499 12.7676 48.0499C13.0359 48.0499 13.229 47.9563 13.3471 47.7689C13.4678 47.5788 13.5282 47.2404 13.5282 46.7539ZM18.2406 49.5347C18.2406 49.0537 18.1802 48.7182 18.0595 48.5281C17.9414 48.3379 17.7483 48.2429 17.48 48.2429C17.2063 48.2429 17.0105 48.3379 16.8924 48.5281C16.7744 48.7182 16.7154 49.0551 16.7154 49.5389C16.7154 50.0226 16.7744 50.3595 16.8924 50.5497C17.0105 50.737 17.2063 50.8307 17.48 50.8307C17.7483 50.8307 17.9414 50.737 18.0595 50.5497C18.1802 50.3595 18.2406 50.0212 18.2406 49.5347Z" fill="black"/>
<path d="M5.04907 93.5322H4.15971V95.2896H3.38705V93.5322H0.517761V92.5675L3.41924 89.0443H4.15971V92.8611H5.04907V93.5322ZM3.38705 92.8611V90.0426L1.06506 92.8611H3.38705Z" fill="black"/>
<path d="M10.1438 92.1649C10.1438 93.2861 9.97475 94.1096 9.63671 94.6353C9.30135 95.1581 8.77954 95.4196 8.07128 95.4196C7.35228 95.4196 6.82644 95.1539 6.49377 94.6227C6.16378 94.0914 5.99879 93.2749 5.99879 92.1732C5.99879 91.0632 6.16646 90.2439 6.50182 89.7154C6.83717 89.1842 7.36033 88.9185 8.07128 88.9185C8.79027 88.9185 9.31477 89.1883 9.64476 89.728C9.97743 90.2649 10.1438 91.0772 10.1438 92.1649ZM9.08539 94.069C9.17929 93.8426 9.24233 93.5769 9.27453 93.2721C9.3094 92.9646 9.32684 92.5955 9.32684 92.1649C9.32684 91.7398 9.3094 91.3708 9.27453 91.0576C9.24233 90.7444 9.17794 90.4788 9.08136 90.2607C8.98746 90.0454 8.85869 89.8832 8.69503 89.7741C8.53406 89.6651 8.32614 89.6106 8.07128 89.6106C7.81909 89.6106 7.60983 89.6651 7.44349 89.7741C7.27984 89.8832 7.14972 90.0482 7.05314 90.2691C6.96192 90.476 6.89888 90.7458 6.864 91.0786C6.83181 91.4113 6.81571 91.7762 6.81571 92.1732C6.81571 92.6094 6.83047 92.9743 6.85998 93.2679C6.88949 93.5615 6.95253 93.8244 7.04912 94.0565C7.13765 94.2746 7.2624 94.4409 7.42337 94.5556C7.58702 94.6702 7.80299 94.7275 8.07128 94.7275C8.32346 94.7275 8.53272 94.673 8.69906 94.564C8.86539 94.4549 8.99417 94.2899 9.08539 94.069Z" fill="black"/>
<path d="M14.2445 90.7766C14.2445 91.4029 14.117 91.8685 13.8622 92.1732C13.61 92.478 13.2451 92.6304 12.7676 92.6304C12.2793 92.6304 11.9104 92.478 11.6609 92.1732C11.4114 91.8685 11.2867 91.4043 11.2867 90.7808C11.2867 90.1544 11.4141 89.6889 11.669 89.3841C11.9238 89.0793 12.29 88.9269 12.7676 88.9269C13.2532 88.9269 13.6207 89.0807 13.8702 89.3883C14.1197 89.6959 14.2445 90.1586 14.2445 90.7766ZM17.0252 89.0443L13.8863 95.2896H13.2223L16.3612 89.0443H17.0252ZM18.9569 93.5573C18.9569 94.1837 18.8294 94.6492 18.5746 94.954C18.3197 95.2588 17.9535 95.4112 17.4759 95.4112C16.9904 95.4112 16.6228 95.2574 16.3733 94.9498C16.1238 94.6423 15.999 94.1795 15.999 93.5615C15.999 92.9352 16.1251 92.4696 16.3773 92.1649C16.6322 91.8601 16.9984 91.7077 17.4759 91.7077C17.9642 91.7077 18.3331 91.8601 18.5826 92.1649C18.8321 92.4696 18.9569 92.9338 18.9569 93.5573ZM13.5282 90.7766C13.5282 90.2956 13.4678 89.9601 13.3471 89.77C13.229 89.5798 13.0359 89.4847 12.7676 89.4847C12.4939 89.4847 12.2981 89.5798 12.18 89.77C12.062 89.9601 12.003 90.297 12.003 90.7808C12.003 91.2645 12.062 91.6014 12.18 91.7916C12.2981 91.9789 12.4939 92.0726 12.7676 92.0726C13.0359 92.0726 13.229 91.9789 13.3471 91.7916C13.4678 91.6014 13.5282 91.2631 13.5282 90.7766ZM18.2406 93.5573C18.2406 93.0764 18.1802 92.7409 18.0595 92.5507C17.9414 92.3606 17.7483 92.2655 17.48 92.2655C17.2063 92.2655 17.0105 92.3606 16.8924 92.5507C16.7744 92.7409 16.7154 93.0778 16.7154 93.5615C16.7154 94.0453 16.7744 94.3822 16.8924 94.5723C17.0105 94.7597 17.2063 94.8534 17.48 94.8534C17.7483 94.8534 17.9414 94.7597 18.0595 94.5723C18.1802 94.3822 18.2406 94.0439 18.2406 93.5573Z" fill="black"/>
<path d="M4.91224 183.335H0.855798V182.458C1.1375 182.207 1.41919 181.955 1.70089 181.703C1.98527 181.452 2.24953 181.201 2.49367 180.953C3.00877 180.432 3.36156 180.02 3.55204 179.715C3.74253 179.408 3.83777 179.076 3.83777 178.721C3.83777 178.397 3.73448 178.144 3.5279 177.962C3.324 177.778 3.03828 177.685 2.67073 177.685C2.4266 177.685 2.16234 177.73 1.87796 177.819C1.59358 177.909 1.3159 178.046 1.04494 178.23H1.0047V177.35C1.19518 177.252 1.4487 177.162 1.76528 177.081C2.08454 177 2.39306 176.96 2.69086 176.96C3.30522 176.96 3.78679 177.115 4.13556 177.425C4.48433 177.733 4.65871 178.151 4.65871 178.679C4.65871 178.917 4.6292 179.139 4.57018 179.346C4.51384 179.55 4.42933 179.745 4.31665 179.929C4.21202 180.103 4.08861 180.273 3.94642 180.441C3.80691 180.609 3.63655 180.795 3.43534 180.999C3.14828 181.292 2.85183 181.577 2.54598 181.854C2.24014 182.128 1.95442 182.383 1.68882 182.618H4.91224V183.335Z" fill="black"/>
<path d="M10.1438 180.21C10.1438 181.331 9.97475 182.155 9.63671 182.681C9.30135 183.203 8.77954 183.465 8.07128 183.465C7.35228 183.465 6.82644 183.199 6.49377 182.668C6.16378 182.137 5.99879 181.32 5.99879 180.219C5.99879 179.108 6.16646 178.289 6.50182 177.761C6.83717 177.229 7.36033 176.964 8.07128 176.964C8.79027 176.964 9.31477 177.234 9.64476 177.773C9.97743 178.31 10.1438 179.122 10.1438 180.21ZM9.08539 182.114C9.17929 181.888 9.24233 181.622 9.27453 181.317C9.3094 181.01 9.32684 180.641 9.32684 180.21C9.32684 179.785 9.3094 179.416 9.27453 179.103C9.24233 178.79 9.17794 178.524 9.08136 178.306C8.98746 178.091 8.85869 177.929 8.69503 177.819C8.53406 177.71 8.32614 177.656 8.07128 177.656C7.81909 177.656 7.60983 177.71 7.44349 177.819C7.27984 177.929 7.14972 178.093 7.05314 178.314C6.96192 178.521 6.89888 178.791 6.864 179.124C6.83181 179.457 6.81571 179.822 6.81571 180.219C6.81571 180.655 6.83047 181.02 6.85998 181.313C6.88949 181.607 6.95253 181.87 7.04912 182.102C7.13765 182.32 7.2624 182.486 7.42337 182.601C7.58702 182.716 7.80299 182.773 8.07128 182.773C8.32346 182.773 8.53272 182.718 8.69906 182.609C8.86539 182.5 8.99417 182.335 9.08539 182.114Z" fill="black"/>
<path d="M14.2445 178.822C14.2445 179.448 14.117 179.914 13.8622 180.219C13.61 180.523 13.2451 180.676 12.7676 180.676C12.2793 180.676 11.9104 180.523 11.6609 180.219C11.4114 179.914 11.2867 179.45 11.2867 178.826C11.2867 178.2 11.4141 177.734 11.669 177.429C11.9238 177.125 12.29 176.972 12.7676 176.972C13.2532 176.972 13.6207 177.126 13.8702 177.434C14.1197 177.741 14.2445 178.204 14.2445 178.822ZM17.0252 177.09L13.8863 183.335H13.2223L16.3612 177.09H17.0252ZM18.9569 181.603C18.9569 182.229 18.8294 182.695 18.5746 182.999C18.3197 183.304 17.9535 183.457 17.4759 183.457C16.9904 183.457 16.6228 183.303 16.3733 182.995C16.1238 182.688 15.999 182.225 15.999 181.607C15.999 180.981 16.1251 180.515 16.3773 180.21C16.6322 179.905 16.9984 179.753 17.4759 179.753C17.9642 179.753 18.3331 179.905 18.5826 180.21C18.8321 180.515 18.9569 180.979 18.9569 181.603ZM13.5282 178.822C13.5282 178.341 13.4678 178.005 13.3471 177.815C13.229 177.625 13.0359 177.53 12.7676 177.53C12.4939 177.53 12.2981 177.625 12.18 177.815C12.062 178.005 12.003 178.342 12.003 178.826C12.003 179.31 12.062 179.647 12.18 179.837C12.2981 180.024 12.4939 180.118 12.7676 180.118C13.0359 180.118 13.229 180.024 13.3471 179.837C13.4678 179.647 13.5282 179.308 13.5282 178.822ZM18.2406 181.603C18.2406 181.122 18.1802 180.786 18.0595 180.596C17.9414 180.406 17.7483 180.311 17.48 180.311C17.2063 180.311 17.0105 180.406 16.8924 180.596C16.7744 180.786 16.7154 181.123 16.7154 181.607C16.7154 182.091 16.7744 182.428 16.8924 182.618C17.0105 182.805 17.2063 182.899 17.48 182.899C17.7483 182.899 17.9414 182.805 18.0595 182.618C18.1802 182.428 18.2406 182.089 18.2406 181.603Z" fill="black"/>
<path d="M4.57018 227.358H1.32664V226.72H2.57415V222.534H1.32664V221.964C1.49565 221.964 1.67674 221.95 1.86991 221.922C2.06307 221.891 2.20929 221.848 2.30855 221.792C2.43196 221.722 2.52854 221.634 2.5983 221.528C2.67073 221.419 2.71232 221.273 2.72305 221.091H3.34681V226.72H4.57018V227.358Z" fill="black"/>
<path d="M10.1438 224.233C10.1438 225.354 9.97475 226.178 9.63671 226.703C9.30135 227.226 8.77954 227.488 8.07128 227.488C7.35228 227.488 6.82644 227.222 6.49377 226.691C6.16378 226.159 5.99879 225.343 5.99879 224.241C5.99879 223.131 6.16646 222.312 6.50182 221.783C6.83717 221.252 7.36033 220.987 8.07128 220.987C8.79027 220.987 9.31477 221.256 9.64476 221.796C9.97743 222.333 10.1438 223.145 10.1438 224.233ZM9.08539 226.137C9.17929 225.911 9.24233 225.645 9.27453 225.34C9.3094 225.033 9.32684 224.663 9.32684 224.233C9.32684 223.808 9.3094 223.439 9.27453 223.126C9.24233 222.812 9.17794 222.547 9.08136 222.329C8.98746 222.113 8.85869 221.951 8.69503 221.842C8.53406 221.733 8.32614 221.679 8.07128 221.679C7.81909 221.679 7.60983 221.733 7.44349 221.842C7.27984 221.951 7.14972 222.116 7.05314 222.337C6.96192 222.544 6.89888 222.814 6.864 223.147C6.83181 223.479 6.81571 223.844 6.81571 224.241C6.81571 224.677 6.83047 225.042 6.85998 225.336C6.88949 225.63 6.95253 225.892 7.04912 226.124C7.13765 226.343 7.2624 226.509 7.42337 226.624C7.58702 226.738 7.80299 226.796 8.07128 226.796C8.32346 226.796 8.53272 226.741 8.69906 226.632C8.86539 226.523 8.99417 226.358 9.08539 226.137Z" fill="black"/>
<path d="M14.2445 222.845C14.2445 223.471 14.117 223.936 13.8622 224.241C13.61 224.546 13.2451 224.698 12.7676 224.698C12.2793 224.698 11.9104 224.546 11.6609 224.241C11.4114 223.936 11.2867 223.472 11.2867 222.849C11.2867 222.222 11.4141 221.757 11.669 221.452C11.9238 221.147 12.29 220.995 12.7676 220.995C13.2532 220.995 13.6207 221.149 13.8702 221.456C14.1197 221.764 14.2445 222.227 14.2445 222.845ZM17.0252 221.112L13.8863 227.358H13.2223L16.3612 221.112H17.0252ZM18.9569 225.625C18.9569 226.252 18.8294 226.717 18.5746 227.022C18.3197 227.327 17.9535 227.479 17.4759 227.479C16.9904 227.479 16.6228 227.325 16.3733 227.018C16.1238 226.71 15.999 226.247 15.999 225.63C15.999 225.003 16.1251 224.538 16.3773 224.233C16.6322 223.928 16.9984 223.776 17.4759 223.776C17.9642 223.776 18.3331 223.928 18.5826 224.233C18.8321 224.538 18.9569 225.002 18.9569 225.625ZM13.5282 222.845C13.5282 222.364 13.4678 222.028 13.3471 221.838C13.229 221.648 13.0359 221.553 12.7676 221.553C12.4939 221.553 12.2981 221.648 12.18 221.838C12.062 222.028 12.003 222.365 12.003 222.849C12.003 223.332 12.062 223.669 12.18 223.86C12.2981 224.047 12.4939 224.141 12.7676 224.141C13.0359 224.141 13.229 224.047 13.3471 223.86C13.4678 223.669 13.5282 223.331 13.5282 222.845ZM18.2406 225.625C18.2406 225.144 18.1802 224.809 18.0595 224.619C17.9414 224.429 17.7483 224.333 17.48 224.333C17.2063 224.333 17.0105 224.429 16.8924 224.619C16.7744 224.809 16.7154 225.146 16.7154 225.63C16.7154 226.113 16.7744 226.45 16.8924 226.64C17.0105 226.828 17.2063 226.921 17.48 226.921C17.7483 226.921 17.9414 226.828 18.0595 226.64C18.1802 226.45 18.2406 226.112 18.2406 225.625Z" fill="black"/>
<path d="M4.38506 136.305C4.51384 136.425 4.61981 136.576 4.70298 136.758C4.78615 136.94 4.82773 137.175 4.82773 137.463C4.82773 137.748 4.7781 138.009 4.67883 138.247C4.57957 138.485 4.44006 138.691 4.26031 138.868C4.0591 139.063 3.82167 139.209 3.54802 139.304C3.27705 139.396 2.97926 139.442 2.65464 139.442C2.32197 139.442 1.99466 139.4 1.67272 139.316C1.35078 139.235 1.08652 139.146 0.879944 139.048V138.171H0.940307C1.16835 138.328 1.43663 138.458 1.74516 138.561C2.05368 138.665 2.35148 138.717 2.63854 138.717C2.80756 138.717 2.98731 138.687 3.17779 138.629C3.36827 138.57 3.52253 138.483 3.64058 138.369C3.76399 138.245 3.8552 138.11 3.91423 137.962C3.97593 137.813 4.00678 137.626 4.00678 137.4C4.00678 137.176 3.97191 136.991 3.90215 136.846C3.83508 136.698 3.74118 136.582 3.62046 136.498C3.49973 136.411 3.35352 136.352 3.18181 136.322C3.01011 136.288 2.825 136.271 2.62647 136.271H2.26429V135.575H2.54598C2.95377 135.575 3.2784 135.487 3.51985 135.311C3.76399 135.132 3.88606 134.872 3.88606 134.531C3.88606 134.38 3.8552 134.248 3.7935 134.137C3.73179 134.022 3.64594 133.928 3.53595 133.856C3.42059 133.783 3.29718 133.732 3.16572 133.705C3.03426 133.677 2.88536 133.663 2.71903 133.663C2.46416 133.663 2.19319 133.71 1.90613 133.805C1.61906 133.9 1.3481 134.034 1.09323 134.208H1.05299V133.331C1.24347 133.233 1.497 133.144 1.81357 133.063C2.13283 132.979 2.44135 132.937 2.73915 132.937C3.03158 132.937 3.28913 132.965 3.5118 133.021C3.73448 133.077 3.93569 133.166 4.11544 133.289C4.3086 133.424 4.45482 133.586 4.55408 133.776C4.65335 133.966 4.70298 134.188 4.70298 134.443C4.70298 134.789 4.58494 135.093 4.34885 135.353C4.11544 135.61 3.83911 135.772 3.51985 135.839V135.898C3.64863 135.92 3.79618 135.968 3.96252 136.041C4.12885 136.111 4.2697 136.199 4.38506 136.305Z" fill="black"/>
<path d="M10.1438 136.188C10.1438 137.309 9.97475 138.132 9.63671 138.658C9.30135 139.181 8.77954 139.442 8.07128 139.442C7.35228 139.442 6.82644 139.177 6.49377 138.645C6.16378 138.114 5.99879 137.298 5.99879 136.196C5.99879 135.086 6.16646 134.267 6.50182 133.738C6.83717 133.207 7.36033 132.941 8.07128 132.941C8.79027 132.941 9.31477 133.211 9.64476 133.751C9.97743 134.288 10.1438 135.1 10.1438 136.188ZM9.08539 138.092C9.17929 137.865 9.24233 137.6 9.27453 137.295C9.3094 136.987 9.32684 136.618 9.32684 136.188C9.32684 135.762 9.3094 135.393 9.27453 135.08C9.24233 134.767 9.17794 134.501 9.08136 134.283C8.98746 134.068 8.85869 133.906 8.69503 133.797C8.53406 133.688 8.32614 133.633 8.07128 133.633C7.81909 133.633 7.60983 133.688 7.44349 133.797C7.27984 133.906 7.14972 134.071 7.05314 134.292C6.96192 134.499 6.89888 134.768 6.864 135.101C6.83181 135.434 6.81571 135.799 6.81571 136.196C6.81571 136.632 6.83047 136.997 6.85998 137.291C6.88949 137.584 6.95253 137.847 7.04912 138.079C7.13765 138.297 7.2624 138.464 7.42337 138.578C7.58702 138.693 7.80299 138.75 8.07128 138.75C8.32346 138.75 8.53272 138.696 8.69906 138.587C8.86539 138.478 8.99417 138.313 9.08539 138.092Z" fill="black"/>
<path d="M14.2445 134.799C14.2445 135.426 14.117 135.891 13.8622 136.196C13.61 136.501 13.2451 136.653 12.7676 136.653C12.2793 136.653 11.9104 136.501 11.6609 136.196C11.4114 135.891 11.2867 135.427 11.2867 134.803C11.2867 134.177 11.4141 133.712 11.669 133.407C11.9238 133.102 12.29 132.95 12.7676 132.95C13.2532 132.95 13.6207 133.103 13.8702 133.411C14.1197 133.719 14.2445 134.181 14.2445 134.799ZM17.0252 133.067L13.8863 139.312H13.2223L16.3612 133.067H17.0252ZM18.9569 137.58C18.9569 138.206 18.8294 138.672 18.5746 138.977C18.3197 139.281 17.9535 139.434 17.4759 139.434C16.9904 139.434 16.6228 139.28 16.3733 138.972C16.1238 138.665 15.999 138.202 15.999 137.584C15.999 136.958 16.1251 136.492 16.3773 136.188C16.6322 135.883 16.9984 135.73 17.4759 135.73C17.9642 135.73 18.3331 135.883 18.5826 136.188C18.8321 136.492 18.9569 136.956 18.9569 137.58ZM13.5282 134.799C13.5282 134.318 13.4678 133.983 13.3471 133.793C13.229 133.602 13.0359 133.507 12.7676 133.507C12.4939 133.507 12.2981 133.602 12.18 133.793C12.062 133.983 12.003 134.32 12.003 134.803C12.003 135.287 12.062 135.624 12.18 135.814C12.2981 136.002 12.4939 136.095 12.7676 136.095C13.0359 136.095 13.229 136.002 13.3471 135.814C13.4678 135.624 13.5282 135.286 13.5282 134.799ZM18.2406 137.58C18.2406 137.099 18.1802 136.764 18.0595 136.573C17.9414 136.383 17.7483 136.288 17.48 136.288C17.2063 136.288 17.0105 136.383 16.8924 136.573C16.7744 136.764 16.7154 137.1 16.7154 137.584C16.7154 138.068 16.7744 138.405 16.8924 138.595C17.0105 138.782 17.2063 138.876 17.48 138.876C17.7483 138.876 17.9414 138.782 18.0595 138.595C18.1802 138.405 18.2406 138.067 18.2406 137.58Z" fill="black"/>
<path d="M66.8938 280.647C66.7647 280.706 66.6473 280.761 66.5416 280.812C66.4384 280.864 66.3022 280.918 66.1332 280.974C65.99 281.02 65.8339 281.06 65.6649 281.091C65.4982 281.126 65.3139 281.143 65.112 281.143C64.7317 281.143 64.3855 281.088 64.0733 280.978C63.7634 280.865 63.4934 280.69 63.2634 280.453C63.038 280.22 62.862 279.926 62.7352 279.568C62.6084 279.209 62.5451 278.792 62.5451 278.317C62.5451 277.867 62.6061 277.464 62.7282 277.11C62.8502 276.755 63.0263 276.455 63.2563 276.21C63.4794 275.973 63.7481 275.792 64.0627 275.667C64.3796 275.542 64.7306 275.48 65.1155 275.48C65.3972 275.48 65.6778 275.516 65.9571 275.586C66.2388 275.657 66.551 275.782 66.8938 275.961V276.823H66.8409C66.5522 276.571 66.2658 276.388 65.9818 276.273C65.6977 276.158 65.3937 276.1 65.0698 276.1C64.8045 276.1 64.5651 276.146 64.3514 276.236C64.1402 276.324 63.9512 276.462 63.7845 276.651C63.6226 276.834 63.4958 277.067 63.4042 277.348C63.315 277.627 63.2704 277.95 63.2704 278.317C63.2704 278.701 63.3197 279.031 63.4183 279.308C63.5193 279.584 63.6484 279.809 63.8057 279.983C63.97 280.164 64.1613 280.299 64.3796 280.387C64.6003 280.472 64.8327 280.515 65.0768 280.515C65.4125 280.515 65.7271 280.455 66.0205 280.335C66.3139 280.216 66.5886 280.036 66.8445 279.796H66.8938V280.647Z" fill="#2E3A59"/>
<path d="M68.4959 281.044H67.8339V275.333H68.4959V281.044Z" fill="#2E3A59"/>
<path d="M72.8622 281.044H72.2038V280.607C72.1451 280.649 72.0653 280.707 71.9643 280.783C71.8657 280.857 71.7695 280.915 71.6756 280.959C71.5652 281.016 71.4385 281.062 71.2953 281.099C71.1521 281.138 70.9842 281.157 70.7918 281.157C70.4373 281.157 70.1368 281.035 69.8903 280.79C69.6438 280.546 69.5206 280.234 69.5206 279.855C69.5206 279.544 69.584 279.293 69.7107 279.102C69.8399 278.909 70.0229 278.757 70.26 278.647C70.4995 278.537 70.7871 278.463 71.1227 278.423C71.4584 278.384 71.8188 278.355 72.2038 278.335V278.229C72.2038 278.072 72.1768 277.943 72.1228 277.84C72.0711 277.737 71.996 277.656 71.8974 277.598C71.8035 277.541 71.6908 277.503 71.5594 277.484C71.4279 277.464 71.2906 277.454 71.1474 277.454C70.9737 277.454 70.78 277.479 70.5664 277.528C70.3528 277.574 70.1321 277.643 69.9044 277.733H69.8692V277.032C69.9983 276.996 70.1849 276.955 70.4291 276.911C70.6732 276.867 70.9138 276.845 71.1509 276.845C71.4279 276.845 71.6685 276.87 71.8728 276.919C72.0793 276.965 72.2578 277.046 72.408 277.161C72.5559 277.273 72.6686 277.419 72.746 277.598C72.8235 277.776 72.8622 277.998 72.8622 278.262V281.044ZM72.2038 280.034V278.893C72.0019 278.905 71.7636 278.924 71.489 278.948C71.2166 278.973 71.0007 279.008 70.841 279.055C70.6509 279.111 70.4971 279.199 70.3798 279.319C70.2624 279.436 70.2037 279.599 70.2037 279.807C70.2037 280.042 70.2718 280.219 70.4079 280.339C70.5441 280.457 70.7518 280.515 71.0312 280.515C71.2636 280.515 71.476 280.469 71.6685 280.376C71.861 280.28 72.0394 280.167 72.2038 280.034Z" fill="#2E3A59"/>
<path d="M76.9468 279.862C76.9468 280.236 76.7978 280.543 76.4996 280.783C76.2039 281.023 75.7989 281.143 75.2848 281.143C74.9937 281.143 74.7261 281.107 74.482 281.036C74.2402 280.963 74.0371 280.883 73.8728 280.798V280.023H73.908C74.117 280.187 74.3494 280.318 74.6052 280.416C74.8611 280.512 75.1064 280.559 75.3412 280.559C75.6323 280.559 75.86 280.51 76.0243 280.412C76.1886 280.315 76.2708 280.16 76.2708 279.95C76.2708 279.789 76.2262 279.666 76.137 279.583C76.0478 279.5 75.8764 279.429 75.6229 279.37C75.529 279.348 75.4057 279.323 75.2531 279.293C75.1029 279.264 74.9656 279.232 74.8412 279.198C74.4961 279.102 74.2508 278.963 74.1052 278.779C73.962 278.593 73.8904 278.366 73.8904 278.097C73.8904 277.928 73.9233 277.769 73.989 277.62C74.0571 277.47 74.1592 277.337 74.2954 277.22C74.4268 277.105 74.5935 277.014 74.7954 276.948C74.9996 276.88 75.2273 276.845 75.4785 276.845C75.7132 276.845 75.9503 276.876 76.1898 276.937C76.4316 276.996 76.6323 277.068 76.7919 277.154V277.891H76.7567C76.5877 277.762 76.3823 277.653 76.1405 277.565C75.8987 277.474 75.6616 277.429 75.4292 277.429C75.1874 277.429 74.9832 277.478 74.8165 277.576C74.6498 277.671 74.5665 277.814 74.5665 278.005C74.5665 278.174 74.617 278.301 74.7179 278.387C74.8165 278.472 74.9761 278.542 75.1968 278.596C75.3189 278.625 75.455 278.655 75.6053 278.684C75.7578 278.713 75.8846 278.74 75.9855 278.765C76.2931 278.838 76.5302 278.964 76.6968 279.143C76.8635 279.324 76.9468 279.564 76.9468 279.862Z" fill="#2E3A59"/>
<path d="M80.7075 279.862C80.7075 280.236 80.5584 280.543 80.2603 280.783C79.9645 281.023 79.5596 281.143 79.0455 281.143C78.7544 281.143 78.4868 281.107 78.2426 281.036C78.0009 280.963 77.7978 280.883 77.6335 280.798V280.023H77.6687C77.8776 280.187 78.11 280.318 78.3659 280.416C78.6218 280.512 78.8671 280.559 79.1018 280.559C79.3929 280.559 79.6206 280.51 79.7849 280.412C79.9493 280.315 80.0314 280.16 80.0314 279.95C80.0314 279.789 79.9868 279.666 79.8976 279.583C79.8084 279.5 79.637 279.429 79.3835 279.37C79.2896 279.348 79.1664 279.323 79.0138 279.293C78.8636 279.264 78.7262 279.232 78.6018 279.198C78.2567 279.102 78.0114 278.963 77.8659 278.779C77.7227 278.593 77.6511 278.366 77.6511 278.097C77.6511 277.928 77.6839 277.769 77.7497 277.62C77.8178 277.47 77.9199 277.337 78.056 277.22C78.1875 277.105 78.3542 277.014 78.556 276.948C78.7603 276.88 78.988 276.845 79.2392 276.845C79.4739 276.845 79.711 276.876 79.9504 276.937C80.1922 276.996 80.3929 277.068 80.5526 277.154V277.891H80.5174C80.3483 277.762 80.1429 277.653 79.9011 277.565C79.6594 277.474 79.4223 277.429 79.1899 277.429C78.9481 277.429 78.7438 277.478 78.5772 277.576C78.4105 277.671 78.3272 277.814 78.3272 278.005C78.3272 278.174 78.3776 278.301 78.4786 278.387C78.5772 278.472 78.7368 278.542 78.9575 278.596C79.0795 278.625 79.2157 278.655 79.3659 278.684C79.5185 278.713 79.6453 278.74 79.7462 278.765C80.0537 278.838 80.2908 278.964 80.4575 279.143C80.6242 279.324 80.7075 279.564 80.7075 279.862Z" fill="#2E3A59"/>
<path d="M88.3802 281.044H87.6373L87.1232 279.521H84.8555L84.3414 281.044H83.6336L85.5421 275.579H86.4717L88.3802 281.044ZM86.9084 278.897L85.9893 276.214L85.0668 278.897H86.9084Z" fill="#2E3A59"/>
<path d="M115.314 280.647C115.184 280.706 115.067 280.761 114.961 280.812C114.858 280.864 114.722 280.918 114.553 280.974C114.41 281.02 114.254 281.06 114.085 281.091C113.918 281.126 113.734 281.143 113.532 281.143C113.151 281.143 112.805 281.088 112.493 280.978C112.183 280.865 111.913 280.69 111.683 280.453C111.458 280.22 111.282 279.926 111.155 279.568C111.028 279.209 110.965 278.792 110.965 278.317C110.965 277.867 111.026 277.464 111.148 277.11C111.27 276.755 111.446 276.455 111.676 276.21C111.899 275.973 112.168 275.792 112.482 275.667C112.799 275.542 113.15 275.48 113.535 275.48C113.817 275.48 114.098 275.516 114.377 275.586C114.659 275.657 114.971 275.782 115.314 275.961V276.823H115.261C114.972 276.571 114.686 276.388 114.402 276.273C114.117 276.158 113.813 276.1 113.49 276.1C113.224 276.1 112.985 276.146 112.771 276.236C112.56 276.324 112.371 276.462 112.204 276.651C112.042 276.834 111.916 277.067 111.824 277.348C111.735 277.627 111.69 277.95 111.69 278.317C111.69 278.701 111.739 279.031 111.838 279.308C111.939 279.584 112.068 279.809 112.225 279.983C112.39 280.164 112.581 280.299 112.799 280.387C113.02 280.472 113.252 280.515 113.497 280.515C113.832 280.515 114.147 280.455 114.44 280.335C114.734 280.216 115.008 280.036 115.264 279.796H115.314V280.647Z" fill="#2E3A59"/>
<path d="M116.916 281.044H116.254V275.333H116.916V281.044Z" fill="#2E3A59"/>
<path d="M121.282 281.044H120.624V280.607C120.565 280.649 120.485 280.707 120.384 280.783C120.285 280.857 120.189 280.915 120.095 280.959C119.985 281.016 119.858 281.062 119.715 281.099C119.572 281.138 119.404 281.157 119.212 281.157C118.857 281.157 118.557 281.035 118.31 280.79C118.064 280.546 117.94 280.234 117.94 279.855C117.94 279.544 118.004 279.293 118.131 279.102C118.26 278.909 118.443 278.757 118.68 278.647C118.919 278.537 119.207 278.463 119.543 278.423C119.878 278.384 120.239 278.355 120.624 278.335V278.229C120.624 278.072 120.597 277.943 120.543 277.84C120.491 277.737 120.416 277.656 120.317 277.598C120.223 277.541 120.111 277.503 119.979 277.484C119.848 277.464 119.71 277.454 119.567 277.454C119.393 277.454 119.2 277.479 118.986 277.528C118.773 277.574 118.552 277.643 118.324 277.733H118.289V277.032C118.418 276.996 118.605 276.955 118.849 276.911C119.093 276.867 119.334 276.845 119.571 276.845C119.848 276.845 120.088 276.87 120.293 276.919C120.499 276.965 120.678 277.046 120.828 277.161C120.976 277.273 121.088 277.419 121.166 277.598C121.243 277.776 121.282 277.998 121.282 278.262V281.044ZM120.624 280.034V278.893C120.422 278.905 120.183 278.924 119.909 278.948C119.636 278.973 119.42 279.008 119.261 279.055C119.071 279.111 118.917 279.199 118.8 279.319C118.682 279.436 118.623 279.599 118.623 279.807C118.623 280.042 118.692 280.219 118.828 280.339C118.964 280.457 119.172 280.515 119.451 280.515C119.683 280.515 119.896 280.469 120.088 280.376C120.281 280.28 120.459 280.167 120.624 280.034Z" fill="#2E3A59"/>
<path d="M125.367 279.862C125.367 280.236 125.218 280.543 124.919 280.783C124.624 281.023 124.219 281.143 123.705 281.143C123.413 281.143 123.146 281.107 122.902 281.036C122.66 280.963 122.457 280.883 122.293 280.798V280.023H122.328C122.537 280.187 122.769 280.318 123.025 280.416C123.281 280.512 123.526 280.559 123.761 280.559C124.052 280.559 124.28 280.51 124.444 280.412C124.608 280.315 124.691 280.16 124.691 279.95C124.691 279.789 124.646 279.666 124.557 279.583C124.468 279.5 124.296 279.429 124.043 279.37C123.949 279.348 123.825 279.323 123.673 279.293C123.523 279.264 123.385 279.232 123.261 279.198C122.916 279.102 122.671 278.963 122.525 278.779C122.382 278.593 122.31 278.366 122.31 278.097C122.31 277.928 122.343 277.769 122.409 277.62C122.477 277.47 122.579 277.337 122.715 277.22C122.847 277.105 123.013 277.014 123.215 276.948C123.419 276.88 123.647 276.845 123.898 276.845C124.133 276.845 124.37 276.876 124.61 276.937C124.851 276.996 125.052 277.068 125.212 277.154V277.891H125.176C125.007 277.762 124.802 277.653 124.56 277.565C124.318 277.474 124.081 277.429 123.849 277.429C123.607 277.429 123.403 277.478 123.236 277.576C123.07 277.671 122.986 277.814 122.986 278.005C122.986 278.174 123.037 278.301 123.138 278.387C123.236 278.472 123.396 278.542 123.617 278.596C123.739 278.625 123.875 278.655 124.025 278.684C124.178 278.713 124.304 278.74 124.405 278.765C124.713 278.838 124.95 278.964 125.117 279.143C125.283 279.324 125.367 279.564 125.367 279.862Z" fill="#2E3A59"/>
<path d="M129.127 279.862C129.127 280.236 128.978 280.543 128.68 280.783C128.384 281.023 127.979 281.143 127.465 281.143C127.174 281.143 126.907 281.107 126.662 281.036C126.421 280.963 126.218 280.883 126.053 280.798V280.023H126.088C126.297 280.187 126.53 280.318 126.786 280.416C127.042 280.512 127.287 280.559 127.522 280.559C127.813 280.559 128.04 280.51 128.205 280.412C128.369 280.315 128.451 280.16 128.451 279.95C128.451 279.789 128.407 279.666 128.317 279.583C128.228 279.5 128.057 279.429 127.803 279.37C127.709 279.348 127.586 279.323 127.434 279.293C127.283 279.264 127.146 279.232 127.022 279.198C126.676 279.102 126.431 278.963 126.286 278.779C126.142 278.593 126.071 278.366 126.071 278.097C126.071 277.928 126.104 277.769 126.169 277.62C126.238 277.47 126.34 277.337 126.476 277.22C126.607 277.105 126.774 277.014 126.976 276.948C127.18 276.88 127.408 276.845 127.659 276.845C127.894 276.845 128.131 276.876 128.37 276.937C128.612 276.996 128.813 277.068 128.972 277.154V277.891H128.937C128.768 277.762 128.563 277.653 128.321 277.565C128.079 277.474 127.842 277.429 127.61 277.429C127.368 277.429 127.164 277.478 126.997 277.576C126.83 277.671 126.747 277.814 126.747 278.005C126.747 278.174 126.797 278.301 126.898 278.387C126.997 278.472 127.157 278.542 127.377 278.596C127.499 278.625 127.635 278.655 127.786 278.684C127.938 278.713 128.065 278.74 128.166 278.765C128.473 278.838 128.711 278.964 128.877 279.143C129.044 279.324 129.127 279.564 129.127 279.862Z" fill="#2E3A59"/>
<path d="M136.62 279.363C136.62 279.634 136.571 279.874 136.473 280.082C136.374 280.29 136.241 280.461 136.075 280.596C135.877 280.757 135.66 280.872 135.423 280.941C135.188 281.009 134.889 281.044 134.525 281.044H132.666V275.579H134.219C134.602 275.579 134.888 275.594 135.078 275.623C135.268 275.653 135.45 275.714 135.624 275.807C135.816 275.912 135.956 276.048 136.043 276.214C136.13 276.378 136.173 276.575 136.173 276.805C136.173 277.064 136.11 277.286 135.983 277.469C135.856 277.65 135.687 277.796 135.476 277.906V277.935C135.83 278.011 136.11 278.174 136.314 278.423C136.518 278.67 136.62 278.984 136.62 279.363ZM135.448 276.9C135.448 276.768 135.427 276.657 135.384 276.566C135.342 276.476 135.274 276.402 135.18 276.346C135.07 276.28 134.936 276.24 134.779 276.225C134.622 276.208 134.427 276.199 134.194 276.199H133.363V277.777H134.265C134.483 277.777 134.657 277.766 134.786 277.744C134.915 277.72 135.035 277.671 135.145 277.598C135.255 277.524 135.333 277.43 135.377 277.315C135.424 277.198 135.448 277.059 135.448 276.9ZM135.895 279.392C135.895 279.172 135.863 278.997 135.8 278.867C135.737 278.738 135.622 278.628 135.455 278.537C135.342 278.476 135.205 278.437 135.043 278.42C134.883 278.4 134.688 278.39 134.458 278.39H133.363V280.423H134.286C134.591 280.423 134.841 280.408 135.036 280.376C135.231 280.342 135.39 280.28 135.515 280.192C135.646 280.097 135.742 279.988 135.803 279.866C135.865 279.743 135.895 279.586 135.895 279.392Z" fill="#2E3A59"/>
<path d="M163.733 280.647C163.604 280.706 163.487 280.761 163.381 280.812C163.278 280.864 163.142 280.918 162.973 280.974C162.829 281.02 162.673 281.06 162.504 281.091C162.338 281.126 162.153 281.143 161.952 281.143C161.571 281.143 161.225 281.088 160.913 280.978C160.603 280.865 160.333 280.69 160.103 280.453C159.878 280.22 159.701 279.926 159.575 279.568C159.448 279.209 159.385 278.792 159.385 278.317C159.385 277.867 159.446 277.464 159.568 277.11C159.69 276.755 159.866 276.455 160.096 276.21C160.319 275.973 160.588 275.792 160.902 275.667C161.219 275.542 161.57 275.48 161.955 275.48C162.237 275.48 162.517 275.516 162.797 275.586C163.078 275.657 163.391 275.782 163.733 275.961V276.823H163.68C163.392 276.571 163.105 276.388 162.821 276.273C162.537 276.158 162.233 276.1 161.909 276.1C161.644 276.1 161.405 276.146 161.191 276.236C160.98 276.324 160.791 276.462 160.624 276.651C160.462 276.834 160.335 277.067 160.244 277.348C160.155 277.627 160.11 277.95 160.11 278.317C160.11 278.701 160.159 279.031 160.258 279.308C160.359 279.584 160.488 279.809 160.645 279.983C160.809 280.164 161.001 280.299 161.219 280.387C161.44 280.472 161.672 280.515 161.916 280.515C162.252 280.515 162.567 280.455 162.86 280.335C163.153 280.216 163.428 280.036 163.684 279.796H163.733V280.647Z" fill="#2E3A59"/>
<path d="M165.335 281.044H164.673V275.333H165.335V281.044Z" fill="#2E3A59"/>
<path d="M169.702 281.044H169.043V280.607C168.985 280.649 168.905 280.707 168.804 280.783C168.705 280.857 168.609 280.915 168.515 280.959C168.405 281.016 168.278 281.062 168.135 281.099C167.992 281.138 167.824 281.157 167.631 281.157C167.277 281.157 166.976 281.035 166.73 280.79C166.483 280.546 166.36 280.234 166.36 279.855C166.36 279.544 166.423 279.293 166.55 279.102C166.679 278.909 166.862 278.757 167.1 278.647C167.339 278.537 167.627 278.463 167.962 278.423C168.298 278.384 168.658 278.355 169.043 278.335V278.229C169.043 278.072 169.016 277.943 168.962 277.84C168.911 277.737 168.836 277.656 168.737 277.598C168.643 277.541 168.53 277.503 168.399 277.484C168.267 277.464 168.13 277.454 167.987 277.454C167.813 277.454 167.62 277.479 167.406 277.528C167.192 277.574 166.972 277.643 166.744 277.733H166.709V277.032C166.838 276.996 167.024 276.955 167.269 276.911C167.513 276.867 167.753 276.845 167.99 276.845C168.267 276.845 168.508 276.87 168.712 276.919C168.919 276.965 169.097 277.046 169.248 277.161C169.395 277.273 169.508 277.419 169.586 277.598C169.663 277.776 169.702 277.998 169.702 278.262V281.044ZM169.043 280.034V278.893C168.841 278.905 168.603 278.924 168.328 278.948C168.056 278.973 167.84 279.008 167.681 279.055C167.49 279.111 167.337 279.199 167.219 279.319C167.102 279.436 167.043 279.599 167.043 279.807C167.043 280.042 167.111 280.219 167.247 280.339C167.384 280.457 167.591 280.515 167.871 280.515C168.103 280.515 168.316 280.469 168.508 280.376C168.701 280.28 168.879 280.167 169.043 280.034Z" fill="#2E3A59"/>
<path d="M173.786 279.862C173.786 280.236 173.637 280.543 173.339 280.783C173.043 281.023 172.638 281.143 172.124 281.143C171.833 281.143 171.566 281.107 171.322 281.036C171.08 280.963 170.877 280.883 170.712 280.798V280.023H170.748C170.956 280.187 171.189 280.318 171.445 280.416C171.701 280.512 171.946 280.559 172.181 280.559C172.472 280.559 172.699 280.51 172.864 280.412C173.028 280.315 173.11 280.16 173.11 279.95C173.11 279.789 173.066 279.666 172.976 279.583C172.887 279.5 172.716 279.429 172.462 279.37C172.368 279.348 172.245 279.323 172.093 279.293C171.942 279.264 171.805 279.232 171.681 279.198C171.336 279.102 171.09 278.963 170.945 278.779C170.802 278.593 170.73 278.366 170.73 278.097C170.73 277.928 170.763 277.769 170.829 277.62C170.897 277.47 170.999 277.337 171.135 277.22C171.266 277.105 171.433 277.014 171.635 276.948C171.839 276.88 172.067 276.845 172.318 276.845C172.553 276.845 172.79 276.876 173.029 276.937C173.271 276.996 173.472 277.068 173.631 277.154V277.891H173.596C173.427 277.762 173.222 277.653 172.98 277.565C172.738 277.474 172.501 277.429 172.269 277.429C172.027 277.429 171.823 277.478 171.656 277.576C171.489 277.671 171.406 277.814 171.406 278.005C171.406 278.174 171.456 278.301 171.557 278.387C171.656 278.472 171.816 278.542 172.036 278.596C172.158 278.625 172.295 278.655 172.445 278.684C172.597 278.713 172.724 278.74 172.825 278.765C173.133 278.838 173.37 278.964 173.536 279.143C173.703 279.324 173.786 279.564 173.786 279.862Z" fill="#2E3A59"/>
<path d="M177.547 279.862C177.547 280.236 177.398 280.543 177.1 280.783C176.804 281.023 176.399 281.143 175.885 281.143C175.594 281.143 175.326 281.107 175.082 281.036C174.84 280.963 174.637 280.883 174.473 280.798V280.023H174.508C174.717 280.187 174.95 280.318 175.205 280.416C175.461 280.512 175.707 280.559 175.941 280.559C176.232 280.559 176.46 280.51 176.624 280.412C176.789 280.315 176.871 280.16 176.871 279.95C176.871 279.789 176.826 279.666 176.737 279.583C176.648 279.5 176.477 279.429 176.223 279.37C176.129 279.348 176.006 279.323 175.853 279.293C175.703 279.264 175.566 279.232 175.441 279.198C175.096 279.102 174.851 278.963 174.705 278.779C174.562 278.593 174.491 278.366 174.491 278.097C174.491 277.928 174.523 277.769 174.589 277.62C174.657 277.47 174.759 277.337 174.896 277.22C175.027 277.105 175.194 277.014 175.396 276.948C175.6 276.88 175.827 276.845 176.079 276.845C176.313 276.845 176.551 276.876 176.79 276.937C177.032 276.996 177.232 277.068 177.392 277.154V277.891H177.357C177.188 277.762 176.982 277.653 176.741 277.565C176.499 277.474 176.262 277.429 176.029 277.429C175.788 277.429 175.583 277.478 175.417 277.576C175.25 277.671 175.167 277.814 175.167 278.005C175.167 278.174 175.217 278.301 175.318 278.387C175.417 278.472 175.576 278.542 175.797 278.596C175.919 278.625 176.055 278.655 176.205 278.684C176.358 278.713 176.485 278.74 176.586 278.765C176.893 278.838 177.13 278.964 177.297 279.143C177.464 279.324 177.547 279.564 177.547 279.862Z" fill="#2E3A59"/>
<path d="M185.135 280.647C185.006 280.706 184.889 280.761 184.783 280.812C184.68 280.864 184.544 280.918 184.375 280.974C184.231 281.02 184.075 281.06 183.906 281.091C183.74 281.126 183.555 281.143 183.354 281.143C182.973 281.143 182.627 281.088 182.315 280.978C182.005 280.865 181.735 280.69 181.505 280.453C181.28 280.22 181.103 279.926 180.977 279.568C180.85 279.209 180.787 278.792 180.787 278.317C180.787 277.867 180.848 277.464 180.97 277.11C181.092 276.755 181.268 276.455 181.498 276.21C181.721 275.973 181.99 275.792 182.304 275.667C182.621 275.542 182.972 275.48 183.357 275.48C183.639 275.48 183.919 275.516 184.199 275.586C184.48 275.657 184.793 275.782 185.135 275.961V276.823H185.082C184.794 276.571 184.507 276.388 184.223 276.273C183.939 276.158 183.635 276.1 183.311 276.1C183.046 276.1 182.807 276.146 182.593 276.236C182.382 276.324 182.193 276.462 182.026 276.651C181.864 276.834 181.737 277.067 181.646 277.348C181.557 277.627 181.512 277.95 181.512 278.317C181.512 278.701 181.561 279.031 181.66 279.308C181.761 279.584 181.89 279.809 182.047 279.983C182.211 280.164 182.403 280.299 182.621 280.387C182.842 280.472 183.074 280.515 183.318 280.515C183.654 280.515 183.969 280.455 184.262 280.335C184.555 280.216 184.83 280.036 185.086 279.796H185.135V280.647Z" fill="#2E3A59"/>
<path d="M212.153 280.647C212.024 280.706 211.907 280.761 211.801 280.812C211.698 280.864 211.561 280.918 211.392 280.974C211.249 281.02 211.093 281.06 210.924 281.091C210.757 281.126 210.573 281.143 210.371 281.143C209.991 281.143 209.645 281.088 209.333 280.978C209.023 280.865 208.753 280.69 208.523 280.453C208.297 280.22 208.121 279.926 207.994 279.568C207.868 279.209 207.804 278.792 207.804 278.317C207.804 277.867 207.865 277.464 207.987 277.11C208.11 276.755 208.286 276.455 208.516 276.21C208.739 275.973 209.007 275.792 209.322 275.667C209.639 275.542 209.99 275.48 210.375 275.48C210.657 275.48 210.937 275.516 211.216 275.586C211.498 275.657 211.81 275.782 212.153 275.961V276.823H212.1C211.811 276.571 211.525 276.388 211.241 276.273C210.957 276.158 210.653 276.1 210.329 276.1C210.064 276.1 209.824 276.146 209.611 276.236C209.399 276.324 209.21 276.462 209.044 276.651C208.882 276.834 208.755 277.067 208.664 277.348C208.574 277.627 208.53 277.95 208.53 278.317C208.53 278.701 208.579 279.031 208.678 279.308C208.779 279.584 208.908 279.809 209.065 279.983C209.229 280.164 209.421 280.299 209.639 280.387C209.86 280.472 210.092 280.515 210.336 280.515C210.672 280.515 210.986 280.455 211.28 280.335C211.573 280.216 211.848 280.036 212.104 279.796H212.153V280.647Z" fill="#2E3A59"/>
<path d="M213.755 281.044H213.093V275.333H213.755V281.044Z" fill="#2E3A59"/>
<path d="M218.122 281.044H217.463V280.607C217.404 280.649 217.325 280.707 217.224 280.783C217.125 280.857 217.029 280.915 216.935 280.959C216.825 281.016 216.698 281.062 216.555 281.099C216.411 281.138 216.244 281.157 216.051 281.157C215.697 281.157 215.396 281.035 215.15 280.79C214.903 280.546 214.78 280.234 214.78 279.855C214.78 279.544 214.843 279.293 214.97 279.102C215.099 278.909 215.282 278.757 215.519 278.647C215.759 278.537 216.046 278.463 216.382 278.423C216.718 278.384 217.078 278.355 217.463 278.335V278.229C217.463 278.072 217.436 277.943 217.382 277.84C217.33 277.737 217.255 277.656 217.157 277.598C217.063 277.541 216.95 277.503 216.819 277.484C216.687 277.464 216.55 277.454 216.407 277.454C216.233 277.454 216.039 277.479 215.826 277.528C215.612 277.574 215.391 277.643 215.164 277.733H215.128V277.032C215.258 276.996 215.444 276.955 215.688 276.911C215.932 276.867 216.173 276.845 216.41 276.845C216.687 276.845 216.928 276.87 217.132 276.919C217.339 276.965 217.517 277.046 217.667 277.161C217.815 277.273 217.928 277.419 218.005 277.598C218.083 277.776 218.122 277.998 218.122 278.262V281.044ZM217.463 280.034V278.893C217.261 278.905 217.023 278.924 216.748 278.948C216.476 278.973 216.26 279.008 216.1 279.055C215.91 279.111 215.756 279.199 215.639 279.319C215.522 279.436 215.463 279.599 215.463 279.807C215.463 280.042 215.531 280.219 215.667 280.339C215.803 280.457 216.011 280.515 216.29 280.515C216.523 280.515 216.735 280.469 216.928 280.376C217.12 280.28 217.299 280.167 217.463 280.034Z" fill="#2E3A59"/>
<path d="M222.206 279.862C222.206 280.236 222.057 280.543 221.759 280.783C221.463 281.023 221.058 281.143 220.544 281.143C220.253 281.143 219.985 281.107 219.741 281.036C219.499 280.963 219.296 280.883 219.132 280.798V280.023H219.167C219.376 280.187 219.609 280.318 219.865 280.416C220.12 280.512 220.366 280.559 220.6 280.559C220.892 280.559 221.119 280.51 221.284 280.412C221.448 280.315 221.53 280.16 221.53 279.95C221.53 279.789 221.485 279.666 221.396 279.583C221.307 279.5 221.136 279.429 220.882 279.37C220.788 279.348 220.665 279.323 220.512 279.293C220.362 279.264 220.225 279.232 220.1 279.198C219.755 279.102 219.51 278.963 219.364 278.779C219.221 278.593 219.15 278.366 219.15 278.097C219.15 277.928 219.183 277.769 219.248 277.62C219.316 277.47 219.418 277.337 219.555 277.22C219.686 277.105 219.853 277.014 220.055 276.948C220.259 276.88 220.487 276.845 220.738 276.845C220.973 276.845 221.21 276.876 221.449 276.937C221.691 276.996 221.892 277.068 222.051 277.154V277.891H222.016C221.847 277.762 221.642 277.653 221.4 277.565C221.158 277.474 220.921 277.429 220.688 277.429C220.447 277.429 220.242 277.478 220.076 277.576C219.909 277.671 219.826 277.814 219.826 278.005C219.826 278.174 219.876 278.301 219.977 278.387C220.076 278.472 220.235 278.542 220.456 278.596C220.578 278.625 220.714 278.655 220.865 278.684C221.017 278.713 221.144 278.74 221.245 278.765C221.552 278.838 221.789 278.964 221.956 279.143C222.123 279.324 222.206 279.564 222.206 279.862Z" fill="#2E3A59"/>
<path d="M225.967 279.862C225.967 280.236 225.818 280.543 225.52 280.783C225.224 281.023 224.819 281.143 224.305 281.143C224.014 281.143 223.746 281.107 223.502 281.036C223.26 280.963 223.057 280.883 222.893 280.798V280.023H222.928C223.137 280.187 223.369 280.318 223.625 280.416C223.881 280.512 224.126 280.559 224.361 280.559C224.652 280.559 224.88 280.51 225.044 280.412C225.209 280.315 225.291 280.16 225.291 279.95C225.291 279.789 225.246 279.666 225.157 279.583C225.068 279.5 224.896 279.429 224.643 279.37C224.549 279.348 224.426 279.323 224.273 279.293C224.123 279.264 223.986 279.232 223.861 279.198C223.516 279.102 223.271 278.963 223.125 278.779C222.982 278.593 222.91 278.366 222.91 278.097C222.91 277.928 222.943 277.769 223.009 277.62C223.077 277.47 223.179 277.337 223.315 277.22C223.447 277.105 223.613 277.014 223.815 276.948C224.02 276.88 224.247 276.845 224.498 276.845C224.733 276.845 224.97 276.876 225.21 276.937C225.452 276.996 225.652 277.068 225.812 277.154V277.891H225.777C225.608 277.762 225.402 277.653 225.16 277.565C224.919 277.474 224.682 277.429 224.449 277.429C224.207 277.429 224.003 277.478 223.836 277.576C223.67 277.671 223.586 277.814 223.586 278.005C223.586 278.174 223.637 278.301 223.738 278.387C223.836 278.472 223.996 278.542 224.217 278.596C224.339 278.625 224.475 278.655 224.625 278.684C224.778 278.713 224.905 278.74 225.005 278.765C225.313 278.838 225.55 278.964 225.717 279.143C225.883 279.324 225.967 279.564 225.967 279.862Z" fill="#2E3A59"/>
<path d="M233.935 278.317C233.935 278.814 233.831 279.264 233.622 279.667C233.415 280.071 233.139 280.384 232.794 280.607C232.555 280.761 232.287 280.872 231.992 280.941C231.698 281.009 231.311 281.044 230.83 281.044H229.506V275.579H230.815C231.327 275.579 231.733 275.618 232.034 275.697C232.337 275.772 232.593 275.878 232.801 276.012C233.158 276.245 233.436 276.554 233.636 276.941C233.836 277.327 233.935 277.786 233.935 278.317ZM233.206 278.306C233.206 277.878 233.135 277.517 232.992 277.223C232.848 276.93 232.635 276.698 232.351 276.53C232.144 276.407 231.925 276.323 231.692 276.276C231.46 276.228 231.182 276.203 230.858 276.203H230.203V280.42H230.858C231.193 280.42 231.486 280.394 231.735 280.343C231.986 280.291 232.216 280.196 232.425 280.056C232.685 279.883 232.88 279.654 233.009 279.37C233.141 279.086 233.206 278.732 233.206 278.306Z" fill="#2E3A59"/>
<path d="M261.603 280.647C261.474 280.706 261.357 280.761 261.251 280.812C261.148 280.864 261.011 280.918 260.842 280.974C260.699 281.02 260.543 281.06 260.374 281.091C260.207 281.126 260.023 281.143 259.821 281.143C259.441 281.143 259.095 281.088 258.783 280.978C258.473 280.865 258.203 280.69 257.973 280.453C257.747 280.22 257.571 279.926 257.444 279.568C257.318 279.209 257.254 278.792 257.254 278.317C257.254 277.867 257.315 277.464 257.437 277.11C257.559 276.755 257.736 276.455 257.966 276.21C258.189 275.973 258.457 275.792 258.772 275.667C259.089 275.542 259.44 275.48 259.825 275.48C260.106 275.48 260.387 275.516 260.666 275.586C260.948 275.657 261.26 275.782 261.603 275.961V276.823H261.55C261.261 276.571 260.975 276.388 260.691 276.273C260.407 276.158 260.103 276.1 259.779 276.1C259.514 276.1 259.274 276.146 259.061 276.236C258.849 276.324 258.66 276.462 258.494 276.651C258.332 276.834 258.205 277.067 258.113 277.348C258.024 277.627 257.98 277.95 257.98 278.317C257.98 278.701 258.029 279.031 258.128 279.308C258.229 279.584 258.358 279.809 258.515 279.983C258.679 280.164 258.871 280.299 259.089 280.387C259.31 280.472 259.542 280.515 259.786 280.515C260.122 280.515 260.436 280.455 260.73 280.335C261.023 280.216 261.298 280.036 261.554 279.796H261.603V280.647Z" fill="#2E3A59"/>
<path d="M263.205 281.044H262.543V275.333H263.205V281.044Z" fill="#2E3A59"/>
<path d="M267.571 281.044H266.913V280.607C266.854 280.649 266.775 280.707 266.674 280.783C266.575 280.857 266.479 280.915 266.385 280.959C266.275 281.016 266.148 281.062 266.005 281.099C265.861 281.138 265.694 281.157 265.501 281.157C265.147 281.157 264.846 281.035 264.6 280.79C264.353 280.546 264.23 280.234 264.23 279.855C264.23 279.544 264.293 279.293 264.42 279.102C264.549 278.909 264.732 278.757 264.969 278.647C265.209 278.537 265.496 278.463 265.832 278.423C266.168 278.384 266.528 278.355 266.913 278.335V278.229C266.913 278.072 266.886 277.943 266.832 277.84C266.78 277.737 266.705 277.656 266.607 277.598C266.513 277.541 266.4 277.503 266.269 277.484C266.137 277.464 266 277.454 265.857 277.454C265.683 277.454 265.489 277.479 265.276 277.528C265.062 277.574 264.841 277.643 264.614 277.733H264.578V277.032C264.708 276.996 264.894 276.955 265.138 276.911C265.382 276.867 265.623 276.845 265.86 276.845C266.137 276.845 266.378 276.87 266.582 276.919C266.789 276.965 266.967 277.046 267.117 277.161C267.265 277.273 267.378 277.419 267.455 277.598C267.533 277.776 267.571 277.998 267.571 278.262V281.044ZM266.913 280.034V278.893C266.711 278.905 266.473 278.924 266.198 278.948C265.926 278.973 265.71 279.008 265.55 279.055C265.36 279.111 265.206 279.199 265.089 279.319C264.972 279.436 264.913 279.599 264.913 279.807C264.913 280.042 264.981 280.219 265.117 280.339C265.253 280.457 265.461 280.515 265.74 280.515C265.973 280.515 266.185 280.469 266.378 280.376C266.57 280.28 266.749 280.167 266.913 280.034Z" fill="#2E3A59"/>
<path d="M271.656 279.862C271.656 280.236 271.507 280.543 271.209 280.783C270.913 281.023 270.508 281.143 269.994 281.143C269.703 281.143 269.435 281.107 269.191 281.036C268.949 280.963 268.746 280.883 268.582 280.798V280.023H268.617C268.826 280.187 269.059 280.318 269.314 280.416C269.57 280.512 269.816 280.559 270.05 280.559C270.342 280.559 270.569 280.51 270.734 280.412C270.898 280.315 270.98 280.16 270.98 279.95C270.98 279.789 270.935 279.666 270.846 279.583C270.757 279.5 270.586 279.429 270.332 279.37C270.238 279.348 270.115 279.323 269.962 279.293C269.812 279.264 269.675 279.232 269.55 279.198C269.205 279.102 268.96 278.963 268.814 278.779C268.671 278.593 268.6 278.366 268.6 278.097C268.6 277.928 268.633 277.769 268.698 277.62C268.766 277.47 268.868 277.337 269.005 277.22C269.136 277.105 269.303 277.014 269.505 276.948C269.709 276.88 269.937 276.845 270.188 276.845C270.422 276.845 270.66 276.876 270.899 276.937C271.141 276.996 271.342 277.068 271.501 277.154V277.891H271.466C271.297 277.762 271.092 277.653 270.85 277.565C270.608 277.474 270.371 277.429 270.138 277.429C269.897 277.429 269.692 277.478 269.526 277.576C269.359 277.671 269.276 277.814 269.276 278.005C269.276 278.174 269.326 278.301 269.427 278.387C269.526 278.472 269.685 278.542 269.906 278.596C270.028 278.625 270.164 278.655 270.315 278.684C270.467 278.713 270.594 278.74 270.695 278.765C271.002 278.838 271.239 278.964 271.406 279.143C271.573 279.324 271.656 279.564 271.656 279.862Z" fill="#2E3A59"/>
<path d="M275.417 279.862C275.417 280.236 275.268 280.543 274.97 280.783C274.674 281.023 274.269 281.143 273.755 281.143C273.464 281.143 273.196 281.107 272.952 281.036C272.71 280.963 272.507 280.883 272.343 280.798V280.023H272.378C272.587 280.187 272.819 280.318 273.075 280.416C273.331 280.512 273.576 280.559 273.811 280.559C274.102 280.559 274.33 280.51 274.494 280.412C274.659 280.315 274.741 280.16 274.741 279.95C274.741 279.789 274.696 279.666 274.607 279.583C274.518 279.5 274.346 279.429 274.093 279.37C273.999 279.348 273.876 279.323 273.723 279.293C273.573 279.264 273.435 279.232 273.311 279.198C272.966 279.102 272.721 278.963 272.575 278.779C272.432 278.593 272.36 278.366 272.36 278.097C272.36 277.928 272.393 277.769 272.459 277.62C272.527 277.47 272.629 277.337 272.765 277.22C272.897 277.105 273.063 277.014 273.265 276.948C273.47 276.88 273.697 276.845 273.948 276.845C274.183 276.845 274.42 276.876 274.66 276.937C274.901 276.996 275.102 277.068 275.262 277.154V277.891H275.227C275.058 277.762 274.852 277.653 274.61 277.565C274.369 277.474 274.132 277.429 273.899 277.429C273.657 277.429 273.453 277.478 273.286 277.576C273.12 277.671 273.036 277.814 273.036 278.005C273.036 278.174 273.087 278.301 273.188 278.387C273.286 278.472 273.446 278.542 273.667 278.596C273.789 278.625 273.925 278.655 274.075 278.684C274.228 278.713 274.355 278.74 274.455 278.765C274.763 278.838 275 278.964 275.167 279.143C275.333 279.324 275.417 279.564 275.417 279.862Z" fill="#2E3A59"/>
<path d="M282.41 281.044H278.956V275.579H282.41V276.225H279.653V277.722H282.41V278.368H279.653V280.398H282.41V281.044Z" fill="#2E3A59"/>
</svg>
